<svg width="21" height="20" viewBox="0 0 21 20" fill="none" xmlns="http://www.w3.org/2000/svg">
<path d="M1.75 8.33333C1.75 6.94444 2.07448 5.67014 2.72344 4.51042C3.3724 3.35069 4.24375 2.38889 5.3375 1.625L6.36562 2.95833C5.49062 3.56944 4.79427 4.34028 4.27656 5.27083C3.75885 6.20139 3.5 7.22222 3.5 8.33333H1.75ZM17.5 8.33333C17.5 7.22222 17.2411 6.20139 16.7234 5.27083C16.2057 4.34028 15.5094 3.56944 14.6344 2.95833L15.6625 1.625C16.7562 2.38889 17.6276 3.35069 18.2766 4.51042C18.9255 5.67014 19.25 6.94444 19.25 8.33333H17.5ZM3.5 15.8333V14.1667H5.25V8.33333C5.25 7.18056 5.61458 6.15625 6.34375 5.26042C7.07292 4.36458 8.02083 3.77778 9.1875 3.5V2.91667C9.1875 2.56944 9.3151 2.27431 9.57031 2.03125C9.82552 1.78819 10.1354 1.66667 10.5 1.66667C10.8646 1.66667 11.1745 1.78819 11.4297 2.03125C11.6849 2.27431 11.8125 2.56944 11.8125 2.91667V3.5C12.9792 3.77778 13.9271 4.36458 14.6562 5.26042C15.3854 6.15625 15.75 7.18056 15.75 8.33333V14.1667H17.5V15.8333H3.5ZM10.5 18.3333C10.0188 18.3333 9.60677 18.1701 9.26406 17.8438C8.92135 17.5174 8.75 17.125 8.75 16.6667H12.25C12.25 17.125 12.0786 17.5174 11.7359 17.8438C11.3932 18.1701 10.9812 18.3333 10.5 18.3333ZM7 14.1667H14V8.33333C14 7.41667 13.6573 6.63194 12.9719 5.97917C12.2865 5.32639 11.4625 5 10.5 5C9.5375 5 8.71354 5.32639 8.02812 5.97917C7.34271 6.63194 7 7.41667 7 8.33333V14.1667Z" fill="black"/>
</svg>
