<svg width="13" height="13" viewBox="0 0 13 13" fill="none" xmlns="http://www.w3.org/2000/svg">
<path d="M6.49992 11.9167C5.75061 11.9167 5.04645 11.7745 4.38742 11.4901C3.72839 11.2058 3.15513 10.8198 2.66763 10.3323C2.18013 9.84483 1.79419 9.27157 1.50981 8.61254C1.22544 7.95351 1.08325 7.24935 1.08325 6.50004C1.08325 5.75073 1.22544 5.04657 1.50981 4.38754C1.79419 3.72851 2.18013 3.15525 2.66763 2.66775C3.15513 2.18025 3.72839 1.79431 4.38742 1.50994C5.04645 1.22556 5.75061 1.08337 6.49992 1.08337C7.24922 1.08337 7.95339 1.22556 8.61242 1.50994C9.27145 1.79431 9.84471 2.18025 10.3322 2.66775C10.8197 3.15525 11.2056 3.72851 11.49 4.38754C11.7744 5.04657 11.9166 5.75073 11.9166 6.50004C11.9166 7.24935 11.7744 7.95351 11.49 8.61254C11.2056 9.27157 10.8197 9.84483 10.3322 10.3323C9.84471 10.8198 9.27145 11.2058 8.61242 11.4901C7.95339 11.7745 7.24922 11.9167 6.49992 11.9167ZM6.49992 10.8334C7.70964 10.8334 8.73429 10.4136 9.57388 9.574C10.4135 8.73442 10.8333 7.70976 10.8333 6.50004C10.8333 6.01254 10.7543 5.5431 10.5963 5.09171C10.4383 4.64032 10.2103 4.22504 9.91242 3.84587L3.84575 9.91254C4.22492 10.2105 4.6402 10.4384 5.09159 10.5964C5.54297 10.7544 6.01242 10.8334 6.49992 10.8334ZM3.08742 9.15421L9.15409 3.08754C8.77492 2.78962 8.35964 2.56167 7.90825 2.40369C7.45686 2.2457 6.98742 2.16671 6.49992 2.16671C5.2902 2.16671 4.26554 2.5865 3.42596 3.42608C2.58638 4.26567 2.16659 5.29032 2.16659 6.50004C2.16659 6.98754 2.24558 7.45698 2.40356 7.90837C2.56155 8.35976 2.7895 8.77504 3.08742 9.15421Z" fill="#FF0000"/>
</svg>
