<svg width="21" height="20" viewBox="0 0 21 20" fill="none" xmlns="http://www.w3.org/2000/svg">
<path d="M10.5 18.3333C9.28958 18.3333 8.15208 18.1145 7.0875 17.677C6.02292 17.2395 5.09687 16.6458 4.30938 15.8958C3.52188 15.1458 2.89844 14.2638 2.43906 13.25C1.97969 12.2361 1.75 11.1527 1.75 9.99996C1.75 8.84718 1.97969 7.76385 2.43906 6.74996C2.89844 5.73607 3.52188 4.85413 4.30938 4.10413C5.09687 3.35413 6.02292 2.76038 7.0875 2.32288C8.15208 1.88538 9.28958 1.66663 10.5 1.66663C11.7104 1.66663 12.8479 1.88538 13.9125 2.32288C14.9771 2.76038 15.9031 3.35413 16.6906 4.10413C17.4781 4.85413 18.1016 5.73607 18.5609 6.74996C19.0203 7.76385 19.25 8.84718 19.25 9.99996C19.25 11.1527 19.0203 12.2361 18.5609 13.25C18.1016 14.2638 17.4781 15.1458 16.6906 15.8958C15.9031 16.6458 14.9771 17.2395 13.9125 17.677C12.8479 18.1145 11.7104 18.3333 10.5 18.3333ZM10.5 16.6666C12.4542 16.6666 14.1094 16.0208 15.4656 14.7291C16.8219 13.4375 17.5 11.8611 17.5 9.99996C17.5 9.24996 17.3724 8.52774 17.1172 7.83329C16.862 7.13885 16.4937 6.49996 16.0125 5.91663L6.2125 15.25C6.825 15.7083 7.49583 16.059 8.225 16.302C8.95417 16.5451 9.7125 16.6666 10.5 16.6666ZM4.9875 14.0833L14.7875 4.74996C14.175 4.29163 13.5042 3.94093 12.775 3.69788C12.0458 3.45482 11.2875 3.33329 10.5 3.33329C8.54583 3.33329 6.89062 3.97913 5.53437 5.27079C4.17812 6.56246 3.5 8.13885 3.5 9.99996C3.5 10.75 3.6276 11.4722 3.88281 12.1666C4.13802 12.8611 4.50625 13.5 4.9875 14.0833Z" fill="black"/>
</svg>
