<svg width="49" height="49" viewBox="0 0 49 49" fill="none" xmlns="http://www.w3.org/2000/svg">
<path d="M17.3542 41.8541V38.7917H21.4376V34.7083H8.79497C7.76366 34.7083 6.89071 34.351 6.17612 33.6364C5.46154 32.9219 5.10425 32.0489 5.10425 31.0177V10.8366C5.10425 9.80528 5.46154 8.93233 6.17612 8.21775C6.89071 7.50317 7.76366 7.14587 8.79497 7.14587H40.2051C41.2364 7.14587 42.1094 7.50317 42.8239 8.21775C43.5385 8.93233 43.8958 9.80528 43.8958 10.8366V31.0177C43.8958 32.0489 43.5385 32.9219 42.8239 33.6364C42.1094 34.351 41.2364 34.7083 40.2051 34.7083H27.5625V38.7917H31.6458V41.8541H17.3542ZM8.79497 31.6459H40.2051C40.3622 31.6459 40.5062 31.5804 40.6371 31.4496C40.7679 31.3187 40.8334 31.1747 40.8334 31.0177V10.8366C40.8334 10.6795 40.7679 10.5355 40.6371 10.4046C40.5062 10.2738 40.3622 10.2083 40.2051 10.2083H8.79497C8.6379 10.2083 8.49391 10.2738 8.363 10.4046C8.23213 10.5355 8.1667 10.6795 8.1667 10.8366V31.0177C8.1667 31.1747 8.23213 31.3187 8.363 31.4496C8.49391 31.5804 8.6379 31.6459 8.79497 31.6459Z" fill="#FFFF56"/>
</svg>
