<svg width="49" height="49" viewBox="0 0 49 49" fill="none" xmlns="http://www.w3.org/2000/svg">
<path d="M36.7523 44.4062C35.1934 44.4062 33.8675 43.8603 32.7747 42.7686C31.6819 41.6769 31.1355 40.3512 31.1355 38.7916C31.1355 38.5367 31.1558 38.2728 31.1963 37.9998C31.2369 37.7267 31.2978 37.475 31.3789 37.2446L16.2784 28.4026C15.7392 28.9392 15.1254 29.3587 14.437 29.661C13.7485 29.9633 13.0196 30.1145 12.25 30.1145C10.6904 30.1145 9.36478 29.5688 8.27307 28.4776C7.18135 27.3863 6.6355 26.0612 6.6355 24.5022C6.6355 22.9433 7.18135 21.6174 8.27307 20.5246C9.36478 19.4318 10.6904 18.8854 12.25 18.8854C13.0196 18.8854 13.7485 19.0366 14.437 19.3389C15.1254 19.6412 15.7392 20.0607 16.2784 20.5973L31.3789 11.7553C31.2978 11.5249 31.2369 11.2732 31.1963 11.0001C31.1558 10.7271 31.1355 10.4632 31.1355 10.2083C31.1355 8.64869 31.6811 7.32303 32.7724 6.23132C33.8637 5.13961 35.1888 4.59375 36.7477 4.59375C38.3067 4.59375 39.6326 5.13939 40.7254 6.23066C41.8182 7.32193 42.3646 8.64704 42.3646 10.206C42.3646 11.7649 41.8187 13.0908 40.727 14.1836C39.6353 15.2764 38.3096 15.8228 36.75 15.8228C35.9805 15.8228 35.2515 15.6717 34.5631 15.3694C33.8747 15.067 33.2609 14.6476 32.7217 14.111L17.6211 22.953C17.7023 23.1833 17.7632 23.4346 17.8037 23.7067C17.8443 23.9788 17.8646 24.2419 17.8646 24.4959C17.8646 24.7499 17.8443 25.0143 17.8037 25.2892C17.7632 25.564 17.7023 25.8166 17.6211 26.0469L32.7217 34.8889C33.2609 34.3523 33.8747 33.9329 34.5631 33.6305C35.2515 33.3282 35.9805 33.1771 36.75 33.1771C38.3096 33.1771 39.6353 33.7227 40.727 34.814C41.8187 35.9053 42.3646 37.2304 42.3646 38.7893C42.3646 40.3483 41.8189 41.6741 40.7277 42.7669C39.6364 43.8597 38.3113 44.4062 36.7523 44.4062ZM36.75 12.7604C37.4594 12.7604 38.0621 12.5124 38.5581 12.0163C39.0542 11.5203 39.3022 10.9176 39.3022 10.2082C39.3022 9.49889 39.0542 8.89619 38.5581 8.40013C38.0621 7.90414 37.4594 7.65615 36.75 7.65615C36.0407 7.65615 35.438 7.90416 34.9419 8.40018C34.4459 8.89624 34.1979 9.49894 34.1979 10.2083C34.1979 10.9176 34.4459 11.5203 34.9419 12.0164C35.438 12.5124 36.0407 12.7604 36.75 12.7604ZM12.25 27.052C12.9594 27.052 13.5621 26.804 14.0581 26.308C14.5542 25.8119 14.8022 25.2092 14.8022 24.4999C14.8022 23.7906 14.5542 23.1879 14.0581 22.6918C13.5621 22.1958 12.9594 21.9478 12.25 21.9478C11.5407 21.9478 10.938 22.1958 10.4419 22.6918C9.94591 23.1879 9.6979 23.7906 9.6979 24.5C9.6979 25.2093 9.94591 25.812 10.4419 26.3081C10.938 26.8041 11.5407 27.0521 12.25 27.0521V27.052ZM36.75 41.3437C37.4594 41.3437 38.0621 41.0957 38.5581 40.5997C39.0542 40.1036 39.3022 39.5009 39.3022 38.7916C39.3022 38.0822 39.0542 37.4795 38.5581 36.9835C38.0621 36.4875 37.4594 36.2395 36.75 36.2395C36.0407 36.2395 35.438 36.4875 34.9419 36.9835C34.4459 37.4796 34.1979 38.0823 34.1979 38.7916C34.1979 39.501 34.4459 40.1037 34.9419 40.5997C35.438 41.0957 36.0407 41.3437 36.75 41.3437Z" fill="#FFFF56"/>
</svg>
