<svg width="49" height="49" viewBox="0 0 49 49" fill="none" xmlns="http://www.w3.org/2000/svg">
<path d="M19.9064 42.0504C18.2757 42.0504 16.8734 41.4857 15.6994 40.3562C14.5255 39.2268 13.8796 37.8571 13.7618 36.2473C11.8903 35.9621 10.3329 35.1061 9.08959 33.6796C7.84628 32.253 7.22463 30.5805 7.22463 28.6618C7.22463 27.9919 7.31165 27.33 7.4857 26.676C7.65979 26.022 7.92089 25.4079 8.26899 24.8337C7.85545 24.2343 7.54529 23.5859 7.3385 22.8884C7.13171 22.191 7.02832 21.4587 7.02832 20.6915C7.02832 18.7329 7.67287 17.0392 8.96198 15.6104C10.2511 14.1816 11.8471 13.3507 13.75 13.1177C13.737 13.0654 13.7304 13.013 13.7304 12.9607V12.7839C13.7933 11.1402 14.4221 9.75027 15.617 8.61426C16.8119 7.47827 18.2417 6.91028 19.9064 6.91028C20.8435 6.91028 21.6785 7.0935 22.4114 7.45995C23.1443 7.82639 23.8406 8.34467 24.5002 9.01478C25.152 8.34467 25.843 7.82639 26.5732 7.45995C27.3036 7.0935 28.1438 6.91028 29.0939 6.91028C30.7401 6.91028 32.1568 7.47632 33.3439 8.60839C34.5311 9.74046 35.1561 11.1218 35.2189 12.7526V12.9293C35.2189 12.9816 35.2124 13.034 35.1993 13.0863C37.1022 13.3193 38.7067 14.1523 40.0129 15.5854C41.319 17.0185 41.9721 18.7205 41.9721 20.6915C41.9721 21.4587 41.8654 22.191 41.6521 22.8884C41.4388 23.5859 41.1253 24.2343 40.7117 24.8337C41.0599 25.4069 41.3242 26.0207 41.5048 26.675C41.6854 27.3293 41.7757 27.9916 41.7757 28.6618C41.7757 30.6145 41.1489 32.2988 39.8951 33.7149C38.6413 35.131 37.0721 35.9751 35.1875 36.2473C35.0697 37.8571 34.4323 39.2268 33.2754 40.3562C32.1185 41.4857 30.7247 42.0504 29.0939 42.0504C28.1516 42.0504 27.3134 41.8724 26.5792 41.5164C25.8449 41.1604 25.152 40.6408 24.5002 39.9577C23.8275 40.6408 23.126 41.1604 22.3957 41.5164C21.6654 41.8724 20.8357 42.0504 19.9064 42.0504ZM26.0314 13.0352V35.9254C26.0314 36.7829 26.3282 37.5077 26.922 38.0998C27.5157 38.6919 28.2425 38.9879 29.1024 38.9879C29.9213 38.9879 30.6232 38.683 31.2083 38.0731C31.7933 37.4632 32.1094 36.7526 32.1565 35.9411C31.2979 35.7605 30.5055 35.434 29.7791 34.9615C29.0527 34.4891 28.4252 33.8838 27.8964 33.1456C27.6347 32.787 27.536 32.4053 27.6004 32.0005C27.6648 31.5956 27.8773 31.2667 28.238 31.0137C28.5966 30.7519 28.9808 30.6533 29.3906 30.7177C29.8004 30.7821 30.1334 30.9946 30.3895 31.3553C30.8118 31.9695 31.3493 32.4398 32.0019 32.7661C32.6546 33.0924 33.3605 33.2556 34.1196 33.2556C35.3995 33.2556 36.4851 32.81 37.3764 31.9187C38.2677 31.0274 38.7133 29.9418 38.7133 28.6618C38.7133 28.4044 38.6884 28.147 38.6387 27.8896C38.589 27.6322 38.5104 27.3792 38.4031 27.1305C37.8246 27.5232 37.1866 27.8242 36.4891 28.0336C35.7915 28.243 35.0671 28.3477 34.3159 28.3477C33.882 28.3477 33.5184 28.2009 33.2249 27.9073C32.9314 27.6137 32.7847 27.2498 32.7847 26.8158C32.7847 26.3818 32.9314 26.0182 33.2249 25.725C33.5184 25.4319 33.882 25.2853 34.3159 25.2853C35.5958 25.2853 36.6815 24.8396 37.5727 23.9483C38.464 23.0571 38.9097 21.9715 38.9097 20.6915C38.9097 19.4319 38.4706 18.3631 37.5924 17.4852C36.7142 16.6073 35.6482 16.1448 34.3944 16.0977C34.0463 16.7233 33.5875 17.269 33.0182 17.7349C32.4489 18.2009 31.8135 18.57 31.112 18.8422C30.7116 18.994 30.3206 18.9813 29.9392 18.8042C29.5578 18.6271 29.3036 18.3361 29.1764 17.9313C29.0456 17.5308 29.0613 17.1376 29.2235 16.7515C29.3858 16.3654 29.6737 16.1069 30.0873 15.976C30.7024 15.7666 31.2011 15.395 31.5832 14.861C31.9654 14.327 32.1565 13.7151 32.1565 13.0254C32.1565 12.1734 31.8603 11.4516 31.268 10.86C30.6757 10.2685 29.9507 9.97268 29.0928 9.97268C28.235 9.97268 27.5103 10.2687 26.9187 10.8608C26.3272 11.4529 26.0314 12.1777 26.0314 13.0352ZM22.969 35.9254V13.0352C22.969 12.1777 22.6728 11.4529 22.0805 10.8608C21.4882 10.2687 20.7632 9.97268 19.9053 9.97268C19.0475 9.97268 18.3228 10.2687 17.7312 10.8608C17.1397 11.4529 16.8439 12.1777 16.8439 13.0352C16.8439 13.6975 17.0297 14.3008 17.4014 14.8453C17.7731 15.3897 18.2666 15.7666 18.8817 15.976C19.2821 16.1069 19.5753 16.3621 19.7611 16.7417C19.947 17.1212 19.9756 17.5126 19.8469 17.9159C19.6926 18.3192 19.4224 18.6091 19.0365 18.7856C18.6506 18.962 18.2509 18.9743 17.8373 18.8225C17.1358 18.5503 16.5004 18.1845 15.9311 17.7251C15.3618 17.2658 14.9031 16.7233 14.5549 16.0977C13.3352 16.1448 12.2862 16.614 11.408 17.5053C10.5298 18.3965 10.0907 19.4607 10.0907 20.6978C10.0907 21.9736 10.5364 23.0571 11.4277 23.9483C12.3189 24.8396 13.4045 25.2853 14.6845 25.2853C15.1184 25.2853 15.482 25.4321 15.7755 25.7257C16.069 26.0193 16.2157 26.3831 16.2157 26.8171C16.2157 27.2512 16.069 27.6148 15.7755 27.908C15.482 28.2011 15.1184 28.3477 14.6845 28.3477C13.9333 28.3477 13.2089 28.243 12.5113 28.0336C11.8137 27.8242 11.1757 27.5232 10.5973 27.1305C10.4899 27.3792 10.4114 27.6322 10.3616 27.8896C10.3119 28.147 10.2871 28.4044 10.2871 28.6618C10.2871 29.9418 10.7327 31.0274 11.624 31.9187C12.5152 32.81 13.6009 33.2556 14.8808 33.2556C15.6438 33.2556 16.3495 33.0913 16.9981 32.7628C17.6466 32.4343 18.1842 31.9651 18.6108 31.3553C18.867 30.9946 19.2 30.7821 19.6098 30.7177C20.0196 30.6533 20.4038 30.7487 20.7624 31.0039C21.121 31.2591 21.333 31.5902 21.3984 31.9972C21.4639 32.4042 21.3657 32.787 21.104 33.1456C20.5622 33.8838 19.9228 34.4943 19.1859 34.9772C18.4491 35.4602 17.6514 35.7919 16.7928 35.9725C16.84 36.784 17.1645 37.4894 17.7666 38.0888C18.3686 38.6882 19.0791 38.9879 19.898 38.9879C20.7579 38.9879 21.4847 38.6919 22.0784 38.0998C22.6721 37.5077 22.969 36.7829 22.969 35.9254Z" fill="#FFFF56"/>
</svg>
