<svg width="49" height="49" viewBox="0 0 49 49" fill="none" xmlns="http://www.w3.org/2000/svg">
<path d="M23.2434 39.8124C22.7304 39.8124 22.3011 39.6396 21.9556 39.2941C21.6101 38.9486 21.4373 38.5193 21.4373 38.0063V26.1882L10.008 11.6689C9.61536 11.1454 9.55843 10.6009 9.83719 10.0356C10.1159 9.47019 10.5864 9.1875 11.2486 9.1875H37.7509C38.4131 9.1875 38.8836 9.47019 39.1624 10.0356C39.4411 10.6009 39.3842 11.1454 38.9916 11.6689L27.5622 26.1882V38.0063C27.5622 38.5193 27.3895 38.9486 27.0439 39.2941C26.6984 39.6396 26.2691 39.8124 25.7561 39.8124H23.2434ZM24.4998 25.1124L34.606 12.2499H14.3935L24.4998 25.1124Z" fill="#FFFF56"/>
</svg>
