<svg width="145" height="145" viewBox="0 0 145 145" fill="none" xmlns="http://www.w3.org/2000/svg">
<path d="M72.5001 94.552C73.9551 94.552 75.1748 94.0599 76.1591 93.0756C77.1434 92.0913 77.6355 90.8717 77.6355 89.4166C77.6355 87.9616 77.1434 86.7419 76.1591 85.7576C75.1748 84.7733 73.9551 84.2812 72.5001 84.2812C71.045 84.2812 69.8254 84.7733 68.8411 85.7576C67.8568 86.7419 67.3647 87.9616 67.3647 89.4166C67.3647 90.8717 67.8568 92.0913 68.8411 93.0756C69.8254 94.0599 71.045 94.552 72.5001 94.552ZM67.9688 74.3125H77.0313V43.0468H67.9688V74.3125ZM72.5001 132.766C58.4029 129.241 46.823 121.06 37.7605 108.221C28.698 95.3828 24.1667 81.3107 24.1667 66.0052V30.0572L72.5001 11.9323L120.833 30.0572V66.0052C120.833 81.3107 116.302 95.3828 107.24 108.221C98.1772 121.06 86.5973 129.241 72.5001 132.766ZM72.5001 123.401C84.0799 119.575 93.52 112.35 100.82 101.727C108.121 91.1032 111.771 79.1961 111.771 66.0052V36.401L72.5001 21.5989L33.2292 36.401V66.0052C33.2292 79.1961 36.8794 91.1032 44.1798 101.727C51.4801 112.35 60.9202 119.575 72.5001 123.401Z" fill="#FFFF56"/>
</svg>
