<svg width="13" height="13" viewBox="0 0 13 13" fill="none" xmlns="http://www.w3.org/2000/svg">
<path d="M7.43039 5.01L7.89039 5.47L3.36039 10H2.90039V9.54L7.43039 5.01ZM9.23039 2C9.10539 2 8.97539 2.05 8.88039 2.145L7.96539 3.06L9.84039 4.935L10.7554 4.02C10.8017 3.97374 10.8385 3.9188 10.8636 3.85831C10.8887 3.79783 10.9016 3.73298 10.9016 3.6675C10.9016 3.60202 10.8887 3.53717 10.8636 3.47669C10.8385 3.4162 10.8017 3.36126 10.7554 3.315L9.58539 2.145C9.48539 2.045 9.36039 2 9.23039 2ZM7.43039 3.595L1.90039 9.125V11H3.77539L9.30539 5.47L7.43039 3.595Z" fill="#989898"/>
</svg>
