<svg width="13" height="13" viewBox="0 0 13 13" fill="none" xmlns="http://www.w3.org/2000/svg">
<path d="M6.50008 6.48645C5.90425 6.48645 5.41675 6.29687 5.03758 5.9177C4.65841 5.53853 4.46883 5.05103 4.46883 4.4552C4.46883 3.85937 4.65841 3.37187 5.03758 2.9927C5.41675 2.61353 5.90425 2.42395 6.50008 2.42395C7.09591 2.42395 7.58341 2.61353 7.96258 2.9927C8.34175 3.37187 8.53133 3.85937 8.53133 4.4552C8.53133 5.05103 8.34175 5.53853 7.96258 5.9177C7.58341 6.29687 7.09591 6.48645 6.50008 6.48645ZM2.16675 10.8333V9.56041C2.16675 9.21735 2.25251 8.92395 2.42404 8.6802C2.59557 8.43645 2.81675 8.25138 3.08758 8.12499C3.69244 7.85416 4.27248 7.65103 4.82769 7.51562C5.38289 7.3802 5.94036 7.31249 6.50008 7.31249C7.0598 7.31249 7.61501 7.38246 8.16571 7.52239C8.7164 7.66232 9.29382 7.86406 9.89797 8.12762C10.1805 8.25515 10.4071 8.44006 10.5776 8.68237C10.7482 8.92467 10.8334 9.21735 10.8334 9.56041V10.8333H2.16675ZM2.97925 10.0208H10.0209V9.56041C10.0209 9.41596 9.97803 9.27829 9.89227 9.14739C9.80651 9.01648 9.70043 8.91944 9.57404 8.85624C8.99626 8.57638 8.46814 8.38454 7.98966 8.28072C7.51119 8.1769 7.01466 8.12499 6.50008 8.12499C5.9855 8.12499 5.48446 8.1769 4.99696 8.28072C4.50946 8.38454 3.98133 8.57638 3.41258 8.85624C3.28619 8.91944 3.18237 9.01648 3.10112 9.14739C3.01987 9.27829 2.97925 9.41596 2.97925 9.56041V10.0208ZM6.50008 5.67395C6.85216 5.67395 7.14331 5.55885 7.37352 5.32864C7.60373 5.09843 7.71883 4.80728 7.71883 4.4552C7.71883 4.10312 7.60373 3.81197 7.37352 3.58176C7.14331 3.35155 6.85216 3.23645 6.50008 3.23645C6.148 3.23645 5.85685 3.35155 5.62664 3.58176C5.39644 3.81197 5.28133 4.10312 5.28133 4.4552C5.28133 4.80728 5.39644 5.09843 5.62664 5.32864C5.85685 5.55885 6.148 5.67395 6.50008 5.67395Z" fill="white"/>
</svg>
