<svg width="19" height="16" viewBox="0 0 19 16" fill="none" xmlns="http://www.w3.org/2000/svg">
<path d="M10.8333 15.5C9.80556 15.5 8.84361 15.3089 7.9475 14.9267C7.05139 14.5444 6.26333 14.0203 5.58333 13.3542L6.77083 12.1667C7.29861 12.6806 7.90972 13.0869 8.60417 13.3858C9.29861 13.6847 10.0417 13.8339 10.8333 13.8333C12.4444 13.8333 13.8194 13.2639 14.9583 12.125C16.0972 10.9861 16.6667 9.61111 16.6667 8C16.6667 6.38889 16.0972 5.01389 14.9583 3.875C13.8194 2.73611 12.4444 2.16667 10.8333 2.16667C9.22222 2.16667 7.84722 2.73611 6.70833 3.875C5.56944 5.01389 5 6.38889 5 8V8.14583L6.52083 6.625L7.70833 7.79167L4.16667 11.3333L0.625 7.79167L1.8125 6.625L3.33333 8.16667V8C3.33333 6.95833 3.53139 5.9825 3.9275 5.0725C4.32361 4.1625 4.85833 3.37083 5.53167 2.6975C6.205 2.02417 6.99667 1.48972 7.90667 1.09417C8.81667 0.698611 9.79222 0.500556 10.8333 0.5C11.875 0.5 12.8508 0.698056 13.7608 1.09417C14.6708 1.49028 15.4625 2.02472 16.1358 2.6975C16.8092 3.37139 17.3439 4.16306 17.74 5.0725C18.1361 5.98194 18.3339 6.95778 18.3333 8C18.3333 10.0833 17.6042 11.8542 16.1458 13.3125C14.6875 14.7708 12.9167 15.5 10.8333 15.5ZM8.33333 11.3333V7.16667H9.16667V6.33333C9.16667 5.875 9.33 5.4825 9.65667 5.15583C9.98333 4.82917 10.3756 4.66611 10.8333 4.66667C11.2917 4.66667 11.6842 4.83 12.0108 5.15667C12.3375 5.48333 12.5006 5.87556 12.5 6.33333V7.16667H13.3333V11.3333H8.33333ZM10 7.16667H11.6667V6.33333C11.6667 6.09722 11.5867 5.89917 11.4267 5.73917C11.2667 5.57917 11.0689 5.49944 10.8333 5.5C10.5972 5.5 10.3992 5.58 10.2392 5.74C10.0792 5.9 9.99944 6.09778 10 6.33333V7.16667Z" fill="black"/>
</svg>
